<svg id="Layer_1" data-name="Layer 1" xmlns="http://www.w3.org/2000/svg" viewBox="0 0 345.89 49.7"><defs><style>.cls-1,.cls-2{fill:#153c88;}.cls-2,.cls-3,.cls-4,.cls-6{fill-rule:evenodd;}.cls-3{fill:#ffcc4e;}.cls-4,.cls-5{fill:#de2737;}.cls-6{fill:#e3bb25;}.cls-7{fill:#21409a;}</style></defs><path class="cls-1" d="M70.58,4.14h8.9v38.8h-8.9V27.53H58.36V42.94h-8.9V4.14h8.9V19H70.58Z"/><path class="cls-1" d="M103.26,15.22h8.34V42.94h-8.34V40.33c-1.94,2.28-4.72,3.39-8.28,3.39a12.28,12.28,0,0,1-9.39-4.22A14.79,14.79,0,0,1,81.7,29.08a14.65,14.65,0,0,1,3.89-10.36A12.33,12.33,0,0,1,95,14.45c3.56,0,6.34,1.11,8.28,3.38ZM96.65,35.84A6.54,6.54,0,0,0,101.43,34a6.71,6.71,0,0,0,1.83-4.94,6.69,6.69,0,0,0-1.83-4.93,7.16,7.16,0,0,0-9.56,0A6.69,6.69,0,0,0,90,29.08,6.72,6.72,0,0,0,91.87,34,6.52,6.52,0,0,0,96.65,35.84Z"/><path class="cls-1" d="M114.93,4.14h8.9v25.5c0,3.6,2,5.43,6.11,5.43s6.11-1.83,6.11-5.43V4.14H145V30.41a12,12,0,0,1-4.23,9.7,17.9,17.9,0,0,1-21.56,0,12,12,0,0,1-4.23-9.7Z"/><path class="cls-1" d="M148.56,4.14h8.89v38.8h-8.89Z"/><path class="cls-2" d="M4.26,3.59H38.83a2.73,2.73,0,0,1,2.72,2.72V40.78a2.74,2.74,0,0,1-2.72,2.72H4.26a2.73,2.73,0,0,1-2.72-2.72V6.31A2.72,2.72,0,0,1,4.26,3.59"/><path class="cls-3" d="M4.37,4.16H38.72A2.27,2.27,0,0,1,41,6.42V40.67a2.27,2.27,0,0,1-2.26,2.26H4.37a2.27,2.27,0,0,1-2.26-2.26V6.42A2.27,2.27,0,0,1,4.37,4.16"/><path class="cls-4" d="M5.15,33H37.94v0l-.33,0c-13,1.36-24,3.64-32.46,7.32Z"/><path class="cls-5" d="M22.43,10a8.43,8.43,0,0,1,5.65,2.33l.58-.58a9.28,9.28,0,0,0-6.23-2.57ZM29,11.64l-1,1a8.11,8.11,0,0,1,2.37,5.54h1.48A9.51,9.51,0,0,0,29,11.64Zm.92,6.76h2.3a9.89,9.89,0,0,1-2.8,6.92L27.82,23.7A7.67,7.67,0,0,0,29.94,18.4ZM22.43,28.78a10.38,10.38,0,0,0,7.17-3l-2.2-2.2A7.46,7.46,0,0,1,25,25.13a7.18,7.18,0,0,1-2.6.54Zm-.19-3.43v3.76a10.71,10.71,0,0,1-7.46-3l2.67-2.67A7,7,0,0,0,22.24,25.35ZM11.18,18.59a11,11,0,0,0,3.24,7.62h0l3.13-3.13a6.58,6.58,0,0,1-1.94-4.49Zm6.47-4.5a6.27,6.27,0,0,0-1.71,4.31H10.85a11.33,11.33,0,0,1,3.2-7.9Zm-3.76-4a11.8,11.8,0,0,1,8.35-3.45v5.89a5.87,5.87,0,0,0-4.17,1.73Z"/><polygon class="cls-6" points="18.44 9.85 18.77 8.9 19.08 9.85 20.09 9.85 19.28 10.43 19.6 11.42 18.77 10.81 17.95 11.41 18.27 10.44 17.48 9.85 18.44 9.85"/><path class="cls-2" d="M23.36,19.56l.71-.11c-.07-.22-.16-.44-.26-.68-.07.14-.14.27-.22.4a3.64,3.64,0,0,1-.23.39M20.1,17.42l-.48.14c-.61.23-1,.53-1,.84s.39.6,1,.83l.47.14c.11-.31.24-.64.39-1A9.22,9.22,0,0,1,20.1,17.42Zm1-.19-.71.11a6.93,6.93,0,0,0,.25.67c.07-.13.14-.26.22-.39S21.05,17.36,21.13,17.23Zm1.81,0-.7,0-.7,0c-.12.19-.25.39-.36.59s-.23.41-.33.61q.15.32.33.63c.12.2.24.4.36.58.23,0,.46,0,.7,0s.47,0,.7,0c.13-.19.25-.38.37-.59s.23-.41.33-.62l-.32-.6C23.19,17.58,23.07,17.38,22.94,17.19Zm1.13.15-.71-.11.24.4c.08.13.15.26.21.38A7.07,7.07,0,0,0,24.07,17.34Zm.79.22a4.41,4.41,0,0,0-.47-.14,7.56,7.56,0,0,1-.39,1,8.3,8.3,0,0,1,.39,1,4.41,4.41,0,0,0,.47-.14c.62-.23,1-.53,1-.83S25.48,17.79,24.86,17.56ZM20.32,17a7.88,7.88,0,0,1,1-.15,8.26,8.26,0,0,1,.65-.83,3.49,3.49,0,0,0-.35-.32c-.5-.42-.95-.6-1.22-.45s-.33.63-.22,1.28A4.4,4.4,0,0,0,20.32,17Zm2.38,2.91h-.91c.15.2.3.39.45.56A6.89,6.89,0,0,0,22.7,19.94Zm1.47-.18a10.11,10.11,0,0,1-1.05.16,8.09,8.09,0,0,1-.65.82,2.92,2.92,0,0,0,.37.34c.5.42.95.61,1.22.45s.33-.63.22-1.28C24.25,20.1,24.22,19.93,24.17,19.76Zm.31-2.65a3.14,3.14,0,0,1,.49.15c.75.27,1.22.68,1.22,1.14s-.47.86-1.22,1.13l-.48.16a4.64,4.64,0,0,1,.11.51c.14.78,0,1.39-.38,1.62s-1,0-1.59-.48L22.24,21c-.13.13-.25.24-.37.34-.62.51-1.2.71-1.6.48s-.52-.83-.38-1.61a5,5,0,0,1,.11-.5c-.17-.05-.34-.1-.49-.16-.75-.27-1.21-.67-1.21-1.13s.46-.87,1.21-1.14c.15-.06.32-.11.49-.16a4.57,4.57,0,0,1-.1-.48c-.14-.79,0-1.39.38-1.62s1,0,1.59.48a3.81,3.81,0,0,1,.37.34,4,4,0,0,1,.38-.35c.61-.51,1.2-.71,1.6-.48s.51.83.38,1.62C24.57,16.76,24.53,16.93,24.48,17.11Zm-1.36-.23a8.29,8.29,0,0,1,1.05.15c0-.17.08-.33.1-.48.11-.65.05-1.12-.22-1.28s-.71,0-1.22.45l-.36.33A8.26,8.26,0,0,1,23.12,16.88Zm-.88,0h.46c-.15-.2-.31-.39-.46-.56-.15.17-.3.36-.45.56Zm-1.92,2.92c-.05.17-.08.33-.11.48-.11.65,0,1.13.22,1.28s.72,0,1.22-.45q.18-.15.36-.33a7.26,7.26,0,0,1-.65-.83A7.88,7.88,0,0,1,20.32,19.76Zm.58-.57-.23-.41c-.1.23-.18.45-.26.67l.72.11Z"/><path class="cls-4" d="M19.63,16.32a.42.42,0,1,1,.57.15.41.41,0,0,1-.57-.15m5.74.87a.4.4,0,1,1-.4.4A.4.4,0,0,1,25.37,17.19Zm-3.65,4.5A.4.4,0,1,1,21,21.3a.41.41,0,0,1,.55-.15A.39.39,0,0,1,21.72,21.69Z"/><path class="cls-1" d="M5.79,30.38v.75h.33v-.75h.44V32.3H6.12v-.77H5.79v.77H5.35V30.38Z"/><path class="cls-1" d="M7.22,31.92l-.07.38H6.73l.4-1.92h.53L8,32.3H7.59l-.06-.38Zm.27-.34,0-.36c0-.11,0-.32-.05-.44h0c0,.12,0,.33-.06.44l-.06.36Z"/><path class="cls-1" d="M8.21,32.3V30.38h.4l.27.69c0,.12.14.36.19.51h0c0-.16,0-.53,0-.89v-.31h.38V32.3H9l-.26-.65c-.06-.15-.14-.4-.18-.54h0c0,.16,0,.48,0,.86v.33Z"/><path class="cls-1" d="M10.92,31.3c0,.72-.26,1-.65,1s-.63-.51-.63-1,.2-1,.66-1S10.92,30.93,10.92,31.3Zm-.83,0c0,.45.09.6.2.6s.17-.23.17-.62,0-.58-.18-.58S10.09,30.92,10.09,31.34Z"/><path class="cls-1" d="M11.58,30.38V32.3h-.44V30.38Z"/><path class="cls-1" d="M12.79,30.38v1.23c0,.25.07.33.14.33s.15-.06.15-.33V30.38h.44v1.15c0,.49-.18.79-.58.79s-.59-.32-.59-.8V30.38Z"/><path class="cls-1" d="M13.83,32.3V30.38h.4l.27.69c.05.12.14.36.19.51h0c0-.16,0-.53,0-.89v-.31H15V32.3h-.41l-.25-.65c-.06-.15-.15-.4-.19-.54h0c0,.16,0,.48,0,.86v.33Z"/><path class="cls-1" d="M15.8,30.38V32.3h-.44V30.38Z"/><path class="cls-1" d="M16.37,32.3,16,30.38h.48l.12.8c0,.2.06.41.08.63h0c0-.22,0-.43.07-.64l.11-.79h.48l-.43,1.92Z"/><path class="cls-1" d="M18.3,31.48h-.42v.44h.47v.38h-.91V30.38h.88v.38h-.44v.36h.42Z"/><path class="cls-1" d="M18.61,30.41a3,3,0,0,1,.45,0,.79.79,0,0,1,.54.15.48.48,0,0,1,.16.41.51.51,0,0,1-.29.47h0a.41.41,0,0,1,.22.36,3.92,3.92,0,0,0,.13.54h-.46a2.41,2.41,0,0,1-.09-.46c0-.22-.08-.28-.18-.28h0v.74h-.44Zm.44.82h.06c.14,0,.21-.13.21-.27s-.06-.24-.19-.25l-.08,0Z"/><path class="cls-1" d="M20,31.86a.84.84,0,0,0,.33.07c.17,0,.24-.07.24-.17s-.08-.17-.25-.27a.6.6,0,0,1-.36-.54.58.58,0,0,1,.65-.58.73.73,0,0,1,.31.06l-.06.38a.51.51,0,0,0-.25-.06c-.15,0-.22.07-.22.16s0,.14.26.26a.61.61,0,0,1,.35.54.6.6,0,0,1-.67.6.9.9,0,0,1-.39-.07Z"/><path class="cls-1" d="M21.62,30.38V32.3h-.44V30.38Z"/><path class="cls-1" d="M22.15,30.79h-.34v-.41h1.11v.41h-.34V32.3h-.43Z"/><path class="cls-1" d="M23.41,32.3v-.7L23,30.38h.47l.11.45c0,.12.06.26.08.39h0a2.79,2.79,0,0,1,.07-.4l.09-.44h.45l-.42,1.2v.72Z"/><path class="cls-1" d="M26,31.3c0,.72-.26,1-.65,1s-.63-.51-.63-1,.2-1,.66-1S26,30.93,26,31.3Zm-.83,0c0,.45.09.6.2.6s.17-.23.17-.62,0-.58-.18-.58S25.18,30.92,25.18,31.34Z"/><path class="cls-1" d="M26.23,30.38h.88v.38h-.44v.42h.42v.36h-.42v.76h-.44Z"/><path class="cls-1" d="M28.3,30.38V32.3h-.44V30.38Z"/><path class="cls-1" d="M28.62,32.3V30.38H29l.27.69c.05.12.14.36.19.51h0c0-.16,0-.53,0-.89v-.31h.39V32.3h-.41l-.25-.65c-.06-.15-.15-.4-.19-.54h0c0,.16,0,.48,0,.86v.33Z"/><path class="cls-1" d="M30.15,30.41a2.18,2.18,0,0,1,.41,0,.76.76,0,0,1,.57.19,1,1,0,0,1,.24.76,1,1,0,0,1-.28.82.91.91,0,0,1-.61.17l-.33,0ZM30.59,32h.06c.15,0,.27-.17.27-.64s-.08-.59-.27-.59h-.06Z"/><path class="cls-1" d="M32,30.38v1.23c0,.25.07.33.15.33s.15-.06.15-.33V30.38h.44v1.15c0,.49-.18.79-.59.79s-.59-.32-.59-.8V30.38Z"/><path class="cls-1" d="M33,31.86a.84.84,0,0,0,.33.07c.16,0,.24-.07.24-.17s-.08-.17-.25-.27A.6.6,0,0,1,33,31a.57.57,0,0,1,.65-.58.77.77,0,0,1,.31.06l-.06.38a.54.54,0,0,0-.25-.06c-.15,0-.22.07-.22.16s0,.14.26.26a.61.61,0,0,1,.35.54.6.6,0,0,1-.67.6.9.9,0,0,1-.39-.07Z"/><path class="cls-1" d="M34.43,30.79H34.1v-.41h1.1v.41h-.33V32.3h-.44Z"/><path class="cls-1" d="M35.39,30.41a3,3,0,0,1,.45,0,.79.79,0,0,1,.54.15.48.48,0,0,1,.16.41.51.51,0,0,1-.29.47h0a.44.44,0,0,1,.23.36,4.19,4.19,0,0,0,.12.54h-.46a2.41,2.41,0,0,1-.09-.46c0-.22-.08-.28-.18-.28h0v.74h-.44Zm.44.82h.06c.14,0,.21-.13.21-.27s-.05-.24-.19-.25l-.08,0Z"/><path class="cls-1" d="M37,32.3v-.7l-.42-1.22h.47l.11.45c0,.12.06.26.09.39h0c0-.13,0-.27.07-.4l.09-.44h.46l-.43,1.2v.72Z"/><rect class="cls-5" x="165.46" y="14.55" width="1.86" height="28.03"/><path class="cls-7" d="M178.6,26.3a5.38,5.38,0,0,1-2.27-.45,4.75,4.75,0,0,1-1.63-1.22,5.4,5.4,0,0,1-1-1.71,6,6,0,0,1-.33-2,5.84,5.84,0,0,1,.33-1.93,5.19,5.19,0,0,1,1-1.71,4.86,4.86,0,0,1,1.63-1.21,5.38,5.38,0,0,1,2.27-.46,5.69,5.69,0,0,1,1.88.28,4.13,4.13,0,0,1,1.3.71,4,4,0,0,1,.84.93,4.17,4.17,0,0,1,.47.91,5.79,5.79,0,0,1,.26,1H181a3,3,0,0,0-.38-.84,2.07,2.07,0,0,0-.7-.58,2.55,2.55,0,0,0-1.24-.25,2.43,2.43,0,0,0-1.52.46,2.76,2.76,0,0,0-.91,1.19,3.86,3.86,0,0,0-.3,1.5,3.91,3.91,0,0,0,.3,1.51,2.76,2.76,0,0,0,.91,1.19,2.43,2.43,0,0,0,1.52.46,2.55,2.55,0,0,0,1.24-.25,2.17,2.17,0,0,0,.7-.57,2.91,2.91,0,0,0,.38-.83h2.4a5.92,5.92,0,0,1-.26,1,4.22,4.22,0,0,1-.47.92,4,4,0,0,1-.84.93,4.13,4.13,0,0,1-1.3.71A5.71,5.71,0,0,1,178.6,26.3Z"/><path class="cls-7" d="M189.64,26.3a5.58,5.58,0,0,1-2.32-.45,4.87,4.87,0,0,1-1.66-1.22,5.45,5.45,0,0,1-1-1.71,6,6,0,0,1-.33-2,5.86,5.86,0,0,1,.33-1.94,5.3,5.3,0,0,1,1-1.7,5,5,0,0,1,1.66-1.21,6.08,6.08,0,0,1,4.64,0,4.84,4.84,0,0,1,1.65,1.21,5.15,5.15,0,0,1,1,1.7A5.86,5.86,0,0,1,195,21a6,6,0,0,1-.33,2,5.3,5.3,0,0,1-1,1.71A4.74,4.74,0,0,1,192,25.85,5.62,5.62,0,0,1,189.64,26.3Zm-2.85-11.5,1.85-2.2h1.87l1.85,2.2h-1.82l-.95-1.18-1,1.18Zm2.85,9.33a2.51,2.51,0,0,0,1.54-.46,2.94,2.94,0,0,0,.94-1.18,3.76,3.76,0,0,0,.31-1.52,3.7,3.7,0,0,0-.31-1.5,2.9,2.9,0,0,0-.94-1.19,2.81,2.81,0,0,0-3.08,0,2.73,2.73,0,0,0-.93,1.19,3.7,3.7,0,0,0-.31,1.5,3.76,3.76,0,0,0,.31,1.52,2.76,2.76,0,0,0,.93,1.18A2.49,2.49,0,0,0,189.64,24.13Zm2.22-10.89v-.46a.86.86,0,0,1,.08-.36.73.73,0,0,1,.3-.27l.21-.1a2.44,2.44,0,0,0,.43-.29.48.48,0,0,0,.15-.37.4.4,0,0,0-.12-.29.56.56,0,0,0-.72,0,.49.49,0,0,0-.13.26c0,.09,0,.14,0,.15h-1.32a1.66,1.66,0,0,1,.17-.77,1.59,1.59,0,0,1,.58-.66,1.87,1.87,0,0,1,1.06-.27,2,2,0,0,1,1.39.46,1.42,1.42,0,0,1,.51,1.08,1.12,1.12,0,0,1-.35.87,4.34,4.34,0,0,1-.82.6l-.07,0v.39Z"/><path class="cls-7" d="M196.34,26.16V15.8h2.22L202.71,22V15.8h2.39V26.16h-2.24l-4.11-5.93v5.93Z"/><path class="cls-7" d="M211.78,26.3a5.54,5.54,0,0,1-2.31-.44,4.88,4.88,0,0,1-1.66-1.21,5.24,5.24,0,0,1-1-1.71,5.86,5.86,0,0,1-.33-1.94,6,6,0,0,1,.33-1.95,5.45,5.45,0,0,1,1-1.71,4.86,4.86,0,0,1,1.68-1.22,5.69,5.69,0,0,1,2.35-.46,5.41,5.41,0,0,1,1.82.27,4.26,4.26,0,0,1,1.27.69,4,4,0,0,1,.82.89,4.56,4.56,0,0,1,.48.88,5.29,5.29,0,0,1,.26.94h-2.41a2.53,2.53,0,0,0-.39-.77A2.09,2.09,0,0,0,213,18a3,3,0,0,0-2.77.23,3,3,0,0,0-1,1.19A3.8,3.8,0,0,0,209,21a3.71,3.71,0,0,0,.33,1.54,3,3,0,0,0,1,1.21,2.6,2.6,0,0,0,1.6.48,2.43,2.43,0,0,0,1.6-.49,2.11,2.11,0,0,0,.74-1.3h-2.57V20.51h5v.82a5.59,5.59,0,0,1-.62,2.75,4,4,0,0,1-1.72,1.66A5.31,5.31,0,0,1,211.78,26.3Z"/><path class="cls-7" d="M176.57,43V34.7h-3.15V32.6h8.74v2.1H179V43Z"/><path class="cls-7" d="M183.57,43V32.6H186v4h3.73v-4h2.42V43h-2.42V38.69H186V43Z"/><path class="cls-7" d="M198.84,43.1a5.58,5.58,0,0,1-2.32-.45,4.78,4.78,0,0,1-1.66-1.22,5.27,5.27,0,0,1-1-1.71,6,6,0,0,1-.34-1.95,5.87,5.87,0,0,1,.34-1.94,5.12,5.12,0,0,1,1-1.7,4.88,4.88,0,0,1,1.66-1.21,6.06,6.06,0,0,1,4.63,0,4.79,4.79,0,0,1,1.66,1.21,5,5,0,0,1,1,1.7,5.62,5.62,0,0,1,.34,1.94,5.72,5.72,0,0,1-.34,1.95,5.1,5.1,0,0,1-1,1.71,4.69,4.69,0,0,1-1.66,1.22A5.54,5.54,0,0,1,198.84,43.1Zm-2.78-11.5,1.85-2.2h1.87l1.85,2.2h-1.82l-1-1.18-1,1.18Zm2.78,9.33a2.51,2.51,0,0,0,1.54-.46,2.92,2.92,0,0,0,.93-1.18,3.75,3.75,0,0,0,0-3,2.92,2.92,0,0,0-.93-1.18,2.81,2.81,0,0,0-3.08,0,2.76,2.76,0,0,0-.93,1.18,3.86,3.86,0,0,0,0,3,2.76,2.76,0,0,0,.93,1.18A2.49,2.49,0,0,0,198.84,40.93Z"/><path class="cls-7" d="M205.54,43V32.6h2.22l4.14,6.18V32.6h2.4V43h-2.24L207.94,37V43Z"/><path class="cls-7" d="M221,43.1a5.54,5.54,0,0,1-2.31-.44A4.88,4.88,0,0,1,216,39.74a5.86,5.86,0,0,1-.33-1.94,6,6,0,0,1,.33-1.95,5.45,5.45,0,0,1,1-1.71,4.77,4.77,0,0,1,1.68-1.22,5.69,5.69,0,0,1,2.35-.46,5.45,5.45,0,0,1,1.82.27,4.39,4.39,0,0,1,1.27.69,4.19,4.19,0,0,1,.82.88,4.93,4.93,0,0,1,.48.89,6.3,6.3,0,0,1,.26.94h-2.41a2.77,2.77,0,0,0-.39-.77,2,2,0,0,0-.68-.54,2.59,2.59,0,0,0-1.17-.23,2.67,2.67,0,0,0-1.59.46,2.86,2.86,0,0,0-1,1.19,3.64,3.64,0,0,0-.32,1.52,3.71,3.71,0,0,0,.33,1.54,3,3,0,0,0,1,1.21,2.6,2.6,0,0,0,1.6.48,2.43,2.43,0,0,0,1.6-.49,2.06,2.06,0,0,0,.73-1.3h-2.56V37.31h5v.82a5.48,5.48,0,0,1-.63,2.75,4,4,0,0,1-1.71,1.66A5.31,5.31,0,0,1,221,43.1Z"/><path class="cls-7" d="M233.18,43V34.7H230V32.6h8.74v2.1h-3.15V43Z"/><path class="cls-7" d="M240.19,43V32.6h2.42V43Z"/><path class="cls-7" d="M244.4,43V32.6h2.23l4.14,6.18V32.6h2.39V43h-2.24L246.81,37V43Z"/><path class="cls-7" d="M261,43V34.7H257.8V32.6h8.73v2.1h-3.15V43Z"/><path class="cls-7" d="M272.25,43.1a5.29,5.29,0,0,1-1.6-.23,4,4,0,0,1-1.38-.73,3.55,3.55,0,0,1-1-1.32,5,5,0,0,1-.35-2V32.6h2.42v6.26a2.2,2.2,0,0,0,.45,1.4,2.09,2.09,0,0,0,2.85,0,2.2,2.2,0,0,0,.45-1.4V32.6h2.42v6.26a5,5,0,0,1-.35,2,3.55,3.55,0,0,1-1,1.32,4,4,0,0,1-1.38.73A5.27,5.27,0,0,1,272.25,43.1Z"/><path class="cls-7" d="M281.47,43v-3.5l-3.65-6.86h2.64L282.68,37l2.19-4.39h2.66l-3.64,6.86V43Z"/><path class="cls-7" d="M288.75,43V32.6h7.32v2.1h-4.9v2h4.27v2h-4.27v2.15h5V43Zm.84-11.22,1.85-2.2h1.87l1.85,2.2h-1.82l-1-1.18-1,1.18Zm5.07-1.56v-.46a.86.86,0,0,1,.08-.36.81.81,0,0,1,.28-.27l.23-.1a2.44,2.44,0,0,0,.43-.29.5.5,0,0,0,.15-.37.4.4,0,0,0-.12-.29.56.56,0,0,0-.72,0,.58.58,0,0,0-.13.26c0,.09,0,.14,0,.15h-1.32a1.79,1.79,0,0,1,.17-.77,1.52,1.52,0,0,1,.58-.66,1.87,1.87,0,0,1,1.06-.27,2,2,0,0,1,1.39.46,1.42,1.42,0,0,1,.51,1.08,1.12,1.12,0,0,1-.35.87,3.61,3.61,0,0,1-.84.6l-.05,0v.39Z"/><path class="cls-7" d="M297.84,43V32.6h2.22l4.15,6.18V32.6h2.39V43h-2.24L300.24,37V43Z"/><path class="cls-7" d="M315.62,43.1a5.83,5.83,0,0,1-1.79-.24,3.8,3.8,0,0,1-1.22-.64,3.67,3.67,0,0,1-.77-.82,3.81,3.81,0,0,1-.42-.83,5.17,5.17,0,0,1-.21-.88h2.45a2,2,0,0,0,.31.71,1.79,1.79,0,0,0,.62.5,2.43,2.43,0,0,0,1.11.22,1.83,1.83,0,0,0,1.25-.35,1.06,1.06,0,0,0,.39-.8.81.81,0,0,0-.29-.65,2.16,2.16,0,0,0-.93-.36l-1.39-.24a6.84,6.84,0,0,1-1.63-.49,3,3,0,0,1-1.23-.95,2.58,2.58,0,0,1-.47-1.6,2.89,2.89,0,0,1,.49-1.68,3.21,3.21,0,0,1,1.37-1.13,5.14,5.14,0,0,1,2.12-.41,4.85,4.85,0,0,1,1.62.24,3.8,3.8,0,0,1,1.12.58,3.4,3.4,0,0,1,.72.76,3.57,3.57,0,0,1,.41.76,6,6,0,0,1,.22.81h-2.4a1.64,1.64,0,0,0-.27-.58,1.55,1.55,0,0,0-.53-.41,2.09,2.09,0,0,0-.95-.18,1.63,1.63,0,0,0-1.19.36,1,1,0,0,0-.35.74.72.72,0,0,0,.39.66,3.14,3.14,0,0,0,1,.34l1.47.25a5.68,5.68,0,0,1,1.57.52,3.14,3.14,0,0,1,1.15,1,2.57,2.57,0,0,1,.43,1.52,3.06,3.06,0,0,1-.48,1.69,3.25,3.25,0,0,1-1.41,1.18A5.44,5.44,0,0,1,315.62,43.1Z"/><path class="cls-7" d="M321.09,43V32.6h2.42V43Z"/><path class="cls-7" d="M325.31,43V32.6h2.22l4.14,6.18V32.6h2.4V43h-2.24L327.71,37V43Z"/><path class="cls-7" d="M335.86,43V32.6h2.42v4H342v-4h2.42V43H342V38.69h-3.73V43Z"/></svg>